<?xml version="1.0" encoding="utf-8" ?><svg xmlns="http://www.w3.org/2000/svg" xmlns:xlink="http://www.w3.org/1999/xlink" width="2484" height="1110" viewBox="0 0 2484 1110"><clipPath id="cl_4"><rect width="2484" height="1110"/></clipPath><g clip-path="url(#cl_4)"><path fill="white" transform="translate(-191 -152)" d="M629.167 557.469C647.352 549.253 664.644 536.058 671.768 516.741C676.471 503.988 674.76 490.927 675.137 477.662C675.559 462.797 679.752 447.807 686.33 434.529C727.231 351.963 813.146 355.122 847.699 294.691C852.223 286.778 853.001 277.537 856.179 269.168C858.281 280.626 861.837 298.956 860.541 310.019C850.869 392.583 753.16 426.542 805.186 520.311C812.966 534.333 824.088 545.365 834.17 557.785C840.55 565.645 843.806 570.436 848.324 579.578C851.108 585.211 852.467 594.53 855.475 597.125C858.544 597.94 861.104 597.273 863.673 595.409C875.641 586.727 887.217 578.182 890.603 563.044C894.403 546.059 888.474 532.748 885.452 516.414C879.396 485.456 896.205 462.099 921.553 446.201C923.513 444.983 925.504 443.817 927.525 442.703C919.184 461.204 913.144 478.325 921.632 498.447C933.917 527.15 959.787 544.661 963.854 577.7C966.788 601.541 955.044 620.444 947.318 645.382C941.53 664.062 942.604 709.93 976.276 701.261C989.212 697.93 1004.09 675.351 1008.04 664.107C1017.45 643.298 1016.71 622.972 1022.01 603.33C1042.6 662.001 1047.71 719.933 1020.27 777.358C1009.79 799.284 992.674 818.91 992.603 844.418C992.584 851.294 991.579 860.307 998.023 864.589C1013.45 868.547 1032.06 839.11 1038.71 827.81C1039.5 905.305 1009.55 979.955 955.412 1035.41C899.306 1094.17 822.24 1128.35 741.026 1130.51C593.629 1133.08 446.411 1029.22 412.665 883.333C410.761 875.102 406.915 857.308 406.989 849.194C410.299 826.217 403.032 817.339 413.731 786.777L415.108 787.221C417.399 790.192 418.326 791.252 421.486 793.265C431.026 811.913 453.21 844.27 466.429 802.879C468.356 796.844 466.593 786.607 465.314 780.609C458.336 756.161 443.57 733.592 437.573 708.845C424.248 653.86 456.347 590.331 501.967 559.141C502.823 558.55 503.694 557.981 504.578 557.433C489.636 586.689 478.873 612.638 489.67 645.884C492.937 655.942 509.781 681.367 521.204 681.538L522.611 680.689C522.967 647.43 525.574 625.119 540.694 594.259C559.9 555.06 604.689 534.664 603.56 487.847C603.132 470.098 599.684 459.068 591.306 443.734C613.106 455.143 627.924 471.775 635.692 495.524C642.785 517.207 636.996 536.936 629.167 557.469ZM625.418 785.523C613.694 758.561 588.767 742.919 561.727 734.322C581.782 761.241 582.524 787.036 566.569 815.188C548.856 846.444 543.919 884.913 558.451 919.088C539.189 909.476 532.955 903.702 518.554 887.085C519.278 921.54 523.671 954.549 550.358 979.951C560.911 989.861 573.863 996.852 587.939 1000.24C584.504 1002.95 580.546 1005.56 578.362 1009.21C579.028 1026.81 670.109 1076.37 688.105 1088.23C691.977 1068.7 695.867 1060.11 711.769 1046.42C718.608 1070.36 735.988 1080.96 748.015 1101.74C752.244 1097.66 782.657 1071.09 785.572 1070.41C789.084 1073.17 785.568 1088.97 784.748 1093.49C793.92 1089.92 801.931 1085.77 810.71 1081.35C838.863 1066.52 879.792 1044.08 892.087 1012.78C890.476 1009.44 888.814 1005.81 887.087 1002.56C935.957 993.462 955.401 938.357 957.089 894.22C949.978 902.983 934.675 919.782 923.719 921.972L921.438 921.228C923.075 916.177 926.12 911.554 927.541 906.924C942.587 857.859 911.091 829.219 928.278 777.968C910.721 789.408 892.873 809.441 877.799 818.379C896.11 748.743 839.909 739.881 881.562 661.691C855.872 676.182 840.8 683.707 831.293 713.549C811.904 688.809 790.55 681.341 783.712 652.661C773.565 678.68 782.622 684.794 789.293 710.158C791.802 719.698 791.895 727.112 791.555 736.878C768.856 714.629 743.335 714.454 726.45 682.751C721.493 673.478 718.817 663.158 718.644 652.645C718.481 643.156 720.036 636.945 722.773 628.059C727.018 614.273 747.599 579.752 738.102 567.511C732.215 579.764 722.833 591.432 710.791 597.389C659.128 622.946 615.408 668.391 632 730.682C637.916 752.895 635.75 764.789 625.418 785.523Z"/><path fill="white" transform="translate(-191 -152)" d="M603.785 904.611C607.672 904.907 609.739 905.732 613.264 906.783C645.489 916.387 669.825 930.313 693.904 953.846C697.273 957.138 706.041 963.721 708.054 967.54C707.02 970.044 707.21 969.271 703.741 970.72C699.487 972.203 695.184 973.54 690.839 974.729C649.818 985.578 620.337 960.593 608.725 922.476C606.915 916.537 605.349 910.622 603.785 904.611Z"/><path fill="white" transform="translate(-191 -152)" d="M871.05 905.146L874.135 905.39C874.699 906.901 874.711 907.725 874.23 909.32C867.47 931.699 856.857 957.065 836.085 969.557C816.921 981.081 799.054 977.218 779.311 972.233L769.251 968.924C802.964 934.468 824.683 918.548 871.05 905.146Z"/><path fill="white" transform="translate(-191 -152)" d="M1727.51 896.554C1774.57 894.64 1849.42 890.086 1877.62 938.009C1892.73 965.349 1894.51 1002.02 1886.53 1031.86C1879.47 1058.26 1862.71 1075.75 1839.69 1088.53C1811.83 1102.72 1784.88 1100.68 1754.69 1100.56C1734.17 1100.48 1712.95 1101.18 1692.5 1100.11C1691.22 1085.66 1692.2 1050.34 1692.16 1034.09L1691.8 899.471C1703.38 897.928 1715.79 897.324 1727.51 896.554ZM1799.2 1044.5C1810.43 1030.32 1810.34 1017.52 1811.61 1000.24C1813.46 975.268 1808.62 937.841 1774.2 942.099C1773.69 942.165 1773.17 942.242 1772.65 942.329C1770.85 944.252 1769.55 945.019 1769.45 947.856C1768.24 980.127 1769.21 1012.59 1769.1 1044.91C1769.09 1048.41 1768.85 1050.93 1771.29 1053.23C1779.62 1055.94 1792.98 1050.28 1799.2 1044.5Z"/><path fill="white" transform="translate(-191 -152)" d="M1402.85 426.638C1429.28 426.689 1460.42 425.995 1486.43 427.028C1487.39 448.148 1488.47 619.877 1484.73 631.205C1477.13 634.418 1421.86 633.135 1409.89 633.106C1407.71 631.609 1404.31 629.105 1402.12 627.899C1400.53 622.593 1400.34 571.075 1399.7 560.14C1392.89 560.025 1384.27 559.729 1377.71 560.906L1376.36 561.952C1375.33 581.887 1375.95 602.156 1376.7 622.044C1376.9 627.39 1370.34 630.65 1366.3 630.313C1354.25 629.308 1298.6 633.249 1291.43 629.515L1289.88 627.167C1288.49 608.23 1289.59 586.523 1289.3 567.342C1288.62 521.913 1290.67 474.953 1289.7 429.695C1296.57 427.508 1364.39 427.852 1375.3 428.316C1375.79 449.895 1376.04 471.479 1376.03 493.063C1385.2 493.198 1393.85 493.397 1403.01 492.917L1402.85 426.638Z"/><path fill="white" transform="translate(-191 -152)" d="M2121.52 890.239C2181.09 890.606 2229.12 939.155 2228.84 998.732C2228.55 1058.31 2180.07 1106.4 2120.5 1106.2C2060.8 1106.01 2012.59 1057.41 2012.87 997.71C2013.15 938.012 2061.82 889.871 2121.52 890.239ZM2124.98 1051.63C2151.21 1044.16 2146.48 986.007 2141.38 965.188C2138.27 952.522 2130.69 946.364 2117.8 946.115C2091.2 955.476 2096.77 1014.16 2102.68 1036C2105.91 1047.92 2113.29 1052.2 2124.98 1051.63Z"/><path fill="white" transform="translate(-191 -152)" d="M1289.34 785.286C1278.05 840.189 1226.62 877.316 1170.95 870.742C1115.29 864.168 1073.92 816.081 1075.73 760.06C1077.55 704.038 1121.94 658.727 1177.91 655.766C1233.88 652.804 1282.81 693.179 1290.52 748.697C1292.21 760.872 1291.81 773.246 1289.34 785.286ZM1189.3 816.74C1208 807.047 1207.69 783.42 1208.32 764.784C1208.95 746.362 1206.85 710.462 1181.09 711.33C1173.74 714.246 1169.65 717.119 1166.78 724.848C1159.99 743.136 1160.89 766.42 1162.85 785.728C1164.71 803.997 1168.52 817.676 1189.3 816.74Z"/><path fill="white" transform="translate(-191 -152)" d="M2235.78 662.478C2274.91 661.693 2353.69 652.221 2365.95 701.166C2373.09 729.657 2359 748.429 2335.84 761.75C2342.11 765.726 2351.01 770.997 2354.76 777.145C2361.19 787.683 2375.1 854.546 2373.55 862.865C2367.16 866.608 2304.31 864.677 2293.09 864.191C2291.05 859.648 2290 857.637 2288.97 852.742C2284.26 836.556 2284.35 819.111 2279.08 803.131C2277.24 797.573 2266.22 796.292 2261.73 798.645C2260.82 802.825 2260.83 816.509 2260.73 821.666L2259.85 865.861C2235.12 867.284 2200.26 866.29 2174.84 866.261C2177.08 802.557 2175.63 727.697 2175.8 663.687C2195.46 662.844 2216.04 662.787 2235.78 662.478ZM2287.93 740.379C2308.5 717.701 2282.92 706.549 2261.18 709.113C2261.01 728.68 2256 761.747 2287.93 740.379Z"/><path fill="white" transform="translate(-191 -152)" d="M1419.57 660.726C1446.73 659.593 1480.82 660.581 1508.58 660.395C1508.05 685.075 1506.91 710.114 1506.76 734.707C1501.82 778.669 1521.25 837.35 1466.97 859.39C1445.97 869.209 1423.11 868.743 1401.25 869.451C1345.18 874.302 1303.21 838.471 1310.09 780.332C1312.27 761.933 1307.57 674.403 1312.24 663.055C1317.83 660.163 1384.51 661.25 1395.38 661.568L1395.76 748.005C1395.78 759.265 1393.76 799.788 1399.39 805.972C1401.45 808.269 1404.4 809.565 1407.48 809.528C1412.7 809.453 1417.98 804.267 1418.37 799.286C1419.54 784.278 1419.16 768.7 1419.2 753.63L1419.57 660.726Z"/><path fill="white" transform="translate(-191 -152)" d="M1576.6 896.477C1586.54 894.524 1603.11 895.053 1613.6 895.086C1630.68 895.182 1647.76 895.182 1664.83 895.087C1663.32 907.443 1664.19 922.64 1663.62 935.24C1662.01 970.551 1664.51 1012.37 1661.52 1047.12C1658.69 1071.97 1641.02 1090.17 1617.25 1096.79C1564.36 1111.53 1472.02 1112 1467.8 1037.59C1466.93 1022.28 1465.96 905.329 1469.37 898.574C1477.1 895.329 1539.96 896.634 1552.18 897.002C1553.1 941.8 1551.17 987.284 1552.78 1032.09C1553.43 1050.12 1575.16 1048.3 1576.11 1031.99C1576.88 1018.85 1576.61 1004.96 1576.68 991.733L1576.6 896.477Z"/><path fill="white" transform="translate(-191 -152)" d="M1159.07 1035.08L1159.26 1035.99C1167.73 1074.99 1217.08 1038.63 1174.6 1028.33C1143.59 1020.81 1100.9 1016.32 1086.31 982.943C1079.81 967.793 1079.65 950.676 1085.85 935.405C1110.64 874.059 1238.44 873.881 1262.83 932.932C1265.33 940.355 1267.51 948.389 1265.31 956.255C1253.2 957.945 1214.03 957.951 1201.25 955.159C1196.53 953.574 1192.87 949.179 1188.2 947.345C1181.06 944.545 1164.85 941.986 1162.1 951.267C1163.52 955.674 1164.68 956.802 1169.35 958.259C1206.87 969.965 1262.26 973.671 1270.71 1022.05C1280.48 1080.44 1226.18 1104.07 1177.23 1104.76C1123.67 1105.51 1088.61 1093.01 1078.79 1035.75C1103.48 1034.27 1134.08 1034.97 1159.07 1035.08Z"/><path fill="white" transform="translate(-191 -152)" d="M2467.81 655.381C2507.22 654.3 2561.78 664.025 2566.57 712.988C2566.95 716.949 2566.39 717.334 2564.12 720.101C2556.65 723.37 2511.11 721.953 2500.73 721.253C2498.65 719.024 2496.1 716.224 2493.56 714.569C2485.59 709.374 2467.44 707.098 2462.15 716.707C2463.02 719.74 2465 722.032 2468.09 722.968C2497.73 731.975 2530.49 735.425 2554.63 756.877C2578.22 777.834 2576.09 821.82 2554.39 843.625C2533.6 864.514 2499.55 869.64 2471.15 870.216C2436.79 869.807 2401.83 861.863 2386.31 827.458C2383.53 821.309 2378.72 808.548 2381.22 801.992C2384.93 799.549 2449.7 800.797 2458.46 800.994C2459.8 804.669 2461.41 809.235 2463.95 812.392C2469.31 821.376 2493.19 819.768 2492.96 808.794C2492.56 790.606 2445.68 788.549 2433.65 784.15C2406.28 774.14 2384.76 761.22 2382.06 731.094C2377.22 677.043 2422.58 659.734 2467.81 655.381Z"/><path fill="white" transform="translate(-191 -152)" d="M1073.84 410.562C1090.26 408.682 1270.96 407.27 1278.67 410.018C1276.18 424.544 1279.92 464.324 1277.11 473.375C1261.08 473.798 1238.25 472.95 1223.34 474.126C1222.76 493.98 1224.83 630.072 1221.01 640.177C1219.05 641.072 1215.91 642.047 1213.2 641.957C1186.35 641.059 1157.46 643.551 1131.13 641.019C1129.72 640.883 1126.96 638.091 1126.03 637.131C1124.28 601.189 1129.29 558.391 1127.99 523.368C1134.21 457.728 1121.01 480.878 1075.48 475.408L1074.35 475.264C1072.47 462.619 1073.49 424.544 1073.84 410.562Z"/><path fill="white" transform="translate(-191 -152)" d="M2075.79 662.487C2101.83 661.942 2127.87 661.816 2153.9 662.108L2154.35 721.008C2130.83 722.143 2102.72 721.254 2078.58 721.502L2078.6 739.881C2101.31 740.514 2124.83 739.515 2147.93 740.135C2147.44 755.162 2147.34 770.198 2147.61 785.23C2131.63 787.228 2097.41 786.46 2079.66 786.809C2079.04 793.193 2079.25 800.351 2079.28 806.823C2102.27 807.363 2128.97 806.459 2152.25 806.193C2155.06 806.255 2155.21 806.066 2157.73 807.474C2159.31 816.738 2157.93 850.299 2157.3 861.667C2157.25 862.622 2156.71 863.309 2155.84 863.799C2154.23 864.697 2149.04 865.68 2147.31 865.563C2127.56 864.221 2009.07 867.795 1997.69 863.648C1994.51 856.339 1995.88 684.778 1995.86 663.779C2016.14 662.117 2054.05 662.793 2075.79 662.487Z"/><path fill="white" transform="translate(-191 -152)" d="M1517.17 428.803C1530.14 427.984 1549.2 428.423 1562.93 428.187C1599.85 427.354 1636.77 427.015 1673.7 427.169C1673.36 446.581 1673.34 465.997 1673.61 485.41C1651.25 487.147 1622.27 485.911 1598.9 486.774C1598.76 492.756 1598.92 498.968 1598.99 504.968C1621.12 505.373 1644.49 504.908 1666.8 504.956C1666.95 520.258 1667.28 535.557 1667.81 550.851C1645.98 552.328 1622.44 552.555 1600.31 553.749C1600.14 559.642 1600.38 565.992 1600.49 571.923C1625.49 572.623 1651.83 572.322 1676.93 572.416C1676.82 584.96 1675.58 618.753 1676.62 629.715C1658.36 630.047 1526.24 631.833 1518.98 628.445C1516.16 619.456 1517.23 579.991 1517.18 568.247L1517.17 428.803Z"/><path fill="white" transform="translate(-191 -152)" d="M1296.7 897.684L1394.97 897.908C1407.47 897.93 1445.31 897.172 1454.44 899.707C1457.92 907.653 1455.03 941.215 1455.62 951.476C1456.13 960.148 1414.19 956.775 1407.41 957.041C1407.6 1002.26 1409.21 1056.4 1407.68 1100.86C1395.32 1101.39 1329.77 1102.31 1321.67 1099.28C1317.5 1089.61 1321.31 1029.51 1321.64 1014.49C1322 995.519 1322.18 976.54 1322.16 957.562L1274.53 957.521C1273.36 942.04 1274.27 914.387 1274.36 897.948L1296.7 897.684Z"/><path fill="white" transform="translate(-191 -152)" d="M1527.62 663.053C1566.64 664.624 1607.74 662.847 1646.82 663.487C1659.64 663.697 1685.67 662.532 1697.83 664.103C1698.37 675.315 1698.62 710.637 1697.35 721.272C1682.06 721.431 1664.99 721.114 1649.88 721.6C1650.16 769.84 1650.02 818.082 1649.48 866.32C1639.76 866.964 1572.15 867.181 1565.31 864.283C1561.12 856.118 1564.78 743.985 1564.68 724.752C1559.36 722.965 1527.56 723.325 1517.83 722.194C1516.78 704.993 1517.47 681.338 1517.5 663.643L1527.62 663.053Z"/><path fill="white" transform="translate(-191 -152)" d="M1711.21 731.656C1712.63 718.408 1708.12 670.557 1715.12 662.94C1724.19 659.206 1761.54 663.278 1774.07 661.864C1795.37 660.97 1804.75 662.534 1798.42 686.823C1798.02 688.389 1795.9 689.262 1795.91 692.162C1795.93 729.137 1794.41 767.783 1795.68 804.662C1817.87 804.919 1847.38 803.844 1868.35 805.127C1868.44 814.883 1869.7 856.363 1867.06 862.566C1859.38 867.4 1843.71 865.854 1834.58 866.173C1793.96 867.595 1751.17 864.464 1710.76 866.515C1709.64 857.284 1710.43 838.482 1710.24 828.606C1709.66 797.065 1712.18 763.019 1711.21 731.656Z"/><path fill="white" transform="translate(-191 -152)" d="M1910.44 899.535C1917.51 894.857 1968.21 898.721 1980.44 897.638C1983.34 897.381 1993.17 897.664 1996.71 897.831L1996.96 1101.38L1909.55 1101.53C1909.84 1066.04 1910.65 1020.67 1908.97 985.642C1909.67 980.101 1909.08 969.664 1909.21 963.663C1909.67 943.407 1907.81 919.338 1910.44 899.535Z"/><path fill="white" transform="translate(-191 -152)" d="M1880.27 663.641C1903.77 662.001 1942.96 663.201 1967.98 663.179C1967.05 677.424 1967.37 695.31 1967.28 709.807L1966.95 795.74C1966.91 807.539 1965.62 856.708 1966.96 865.747C1961.53 866.772 1943.54 866.5 1937.05 866.509L1880.52 866.426C1878.97 798.841 1878.89 731.23 1880.27 663.641Z"/><path fill="#FFFEFF" fill-opacity="0.011764706" transform="translate(-191 -152)" d="M1278.67 410.018L1280.97 411.67C1281.59 419.267 1281.85 438.395 1284.34 444.42C1284.61 439.115 1283.89 434.869 1286.55 431.054L1289.7 429.695C1290.67 474.953 1288.62 521.913 1289.3 567.342C1289.59 586.523 1288.49 608.23 1289.88 627.167C1289.15 626.964 1287.48 626.16 1286.83 625.87C1281.24 617.623 1286.2 491.415 1284.74 470.494C1280.86 469.199 1284.88 472.977 1277.11 473.375C1279.92 464.324 1276.18 424.544 1278.67 410.018Z"/><path fill="#FFFEFF" fill-opacity="0.011764706" transform="translate(-191 -152)" d="M1967.98 663.179L1971.29 663.852C1973.97 669.451 1971.01 848.255 1969.01 863.413L1966.96 865.747C1965.62 856.708 1966.91 807.539 1966.95 795.74L1967.28 709.807C1967.37 695.31 1967.05 677.424 1967.98 663.179Z"/><path fill="#FFFEFF" fill-opacity="0.011764706" transform="translate(-191 -152)" d="M1508.58 660.395C1512.92 660.91 1525.67 661.054 1527.62 663.053L1517.5 663.643C1517.47 681.338 1516.78 704.993 1517.83 722.194C1527.56 723.325 1559.36 722.965 1564.68 724.752C1551.84 726.888 1525.04 725.697 1511.52 724.669C1510.11 727.606 1507.95 731.806 1506.76 734.707C1506.91 710.114 1508.05 685.075 1508.58 660.395Z"/><path fill="#FFFEFF" fill-opacity="0.011764706" transform="translate(-191 -152)" d="M1664.83 895.087C1666.38 895.492 1667.97 895.49 1668 896.722C1668.88 940.298 1668.82 985.257 1667.42 1028.94C1667.21 1035.32 1666.51 1040.65 1665.15 1044.47C1663.39 1045.98 1663.55 1046.04 1661.52 1047.12C1664.51 1012.37 1662.01 970.551 1663.62 935.24C1664.19 922.64 1663.32 907.443 1664.83 895.087Z"/><path fill="#FFFEFF" fill-opacity="0.011764706" transform="translate(-191 -152)" d="M1710.76 866.515C1709.21 866.508 1706.05 865.794 1705.99 863.928C1704.64 823.67 1705.41 782.939 1707.68 742.695C1707.88 739.106 1709.77 734.872 1711.21 731.656C1712.18 763.019 1709.66 797.065 1710.24 828.606C1710.43 838.482 1709.64 857.284 1710.76 866.515Z"/><path fill="#FFFEFF" fill-opacity="0.011764706" transform="translate(-191 -152)" d="M1126.03 637.131C1124.96 634.211 1121.62 634.179 1121.62 631.99C1121.65 617.007 1121.2 531.667 1127.99 523.368C1129.29 558.391 1124.28 601.189 1126.03 637.131Z"/><path fill="#FFFEFF" fill-opacity="0.027450981" transform="translate(-191 -152)" d="M1262.83 932.932C1266.21 934.642 1266.86 936.539 1269.97 937.663C1270.37 925.467 1268.24 912.196 1270.66 900.878C1271.96 894.777 1293.3 895.467 1296.7 897.684L1274.36 897.948C1274.27 914.387 1273.36 942.04 1274.53 957.521C1271.88 957.313 1269.49 956.49 1265.31 956.255C1267.51 948.389 1265.33 940.355 1262.83 932.932Z"/><path fill="#FFFEFF" fill-opacity="0.011764706" transform="translate(-191 -152)" d="M1377.71 560.906C1384.27 559.729 1392.89 560.025 1399.7 560.14C1400.34 571.075 1400.53 622.593 1402.12 627.899C1399.09 626.654 1398.92 626.443 1396.39 624.275C1394.26 605.536 1395.43 581.326 1394.48 561.49C1388.09 561.579 1384.05 561.495 1377.71 560.906Z"/><path fill="#FFFEFF" fill-opacity="0.015686275" transform="translate(-191 -152)" d="M1908.97 985.642L1907.96 984.805C1903.82 968.815 1905.2 930.91 1905.07 912.839C1905.03 906.467 1905.97 903.369 1910.44 899.535C1907.81 919.338 1909.67 943.407 1909.21 963.663C1909.08 969.664 1909.67 980.101 1908.97 985.642Z"/><path fill="#FFFEFF" fill-opacity="0.011764706" transform="translate(-191 -152)" d="M1676.93 572.416L1680.43 572.753C1683.43 577.532 1681.24 620.278 1681 628.175C1678.7 629.952 1679.99 629.241 1676.62 629.715C1675.58 618.753 1676.82 584.96 1676.93 572.416Z"/><path fill="#020202" fill-opacity="0.89411765" transform="translate(-191 -152)" d="M413.67 771.93L421.486 793.265C418.326 791.252 417.399 790.192 415.108 787.221L413.731 786.777C403.032 817.339 410.299 826.217 406.989 849.194C402.913 829.892 406.857 790.516 413.67 771.93Z"/><path fill="#FFFEFF" fill-opacity="0.0078431377" transform="translate(-191 -152)" d="M1290.52 748.697C1292.19 749.168 1294.58 749.386 1295.17 751.225C1297.86 759.527 1297.86 774.991 1291.59 781.565C1289.93 783.301 1291.24 783.462 1289.34 785.286C1291.81 773.246 1292.21 760.872 1290.52 748.697Z"/><defs><linearGradient id="gradient_0" gradientUnits="userSpaceOnUse" x1="1457.1298" y1="-8.1214542" x2="1454.0409" y2="394.85486"><stop offset="0" stop-color="#080506"/><stop offset="1" stop-color="#292828" stop-opacity="0.98431373"/></linearGradient></defs><path fill="url(#gradient_0)" transform="translate(-191 -152)" d="M0 0L2912 0L2912 387.895L2910.58 387.317C2911.58 382.3 2910.03 380.542 2908.52 375.146L2907.9 376.523C2909.39 383.692 2909.29 399.13 2908.83 406.782C2905.98 370.843 2907.14 335.12 2905.37 299.353C2904.88 289.49 2903.46 250.818 2901.05 244.322C2899.84 218.362 2900.81 185.267 2900.85 158.682L2901.27 12.2006C2851.01 11.3741 2798.56 12.136 2748.12 12.0659L2432.6 11.7363L1522.07 12.1943L5.3327 12.7725C5.46038 21.0124 5.41079 29.254 5.18396 37.4917C3.39326 58.8512 4.86242 93.2694 4.69758 112.61C4.57107 127.453 5.05729 259.962 0 266.837L0 0Z"/><path fill="#020202" fill-opacity="0.98431373" transform="translate(-191 -152)" d="M5.18396 37.4917C6.17318 52.7966 5.75212 71.5407 5.73837 87.0782L5.68264 166.538L5.98877 419.191L5.80197 1088.47L5.64291 1346.75C5.60481 1387.27 4.18425 1433.54 5.23339 1473.52C129.022 1475.26 256.922 1473.71 380.997 1473.66L1065.17 1473.51L2901.35 1473.96L2901.43 652.543L2901.37 394.7L2900.85 295.856C2900.81 280.287 2900.24 259.531 2901.05 244.322C2903.46 250.818 2904.88 289.49 2905.37 299.353C2907.14 335.12 2905.98 370.843 2908.83 406.782C2909.29 399.13 2909.39 383.692 2907.9 376.523L2908.52 375.146C2910.03 380.542 2911.58 382.3 2910.58 387.317L2912 387.895L2912 1480L0 1480L0 266.837C5.05729 259.962 4.57107 127.453 4.69758 112.61C4.86242 93.2694 3.39326 58.8512 5.18396 37.4917Z"/></g></svg>