<?xml version="1.0" encoding="utf-8" ?><svg xmlns="http://www.w3.org/2000/svg" xmlns:xlink="http://www.w3.org/1999/xlink" width="2334" height="1090" viewBox="0 0 2334 1090"><clipPath id="cl_4"><rect width="2334" height="1090"/></clipPath><g clip-path="url(#cl_4)"><path fill="white" transform="translate(-278 -185)" d="M0 0L14.4975 0L2912 0L2912 1480L2902.55 1480L0 1480L0 1471.69L0 0Z"/><defs><linearGradient id="gradient_0" gradientUnits="userSpaceOnUse" x1="1418.1313" y1="-224.7209" x2="1722.507" y2="1666.7678"><stop offset="0" stop-color="#080406"/><stop offset="1" stop-color="#262524"/></linearGradient></defs><path fill="url(#gradient_0)" transform="translate(-278 -185)" d="M14.4975 0L2912 0L2912 1480L2902.55 1480L0 1480L0 1471.69C2.17277 1469.61 0.906708 1470.35 4.35225 1470.08C5.61717 1454.59 4.52413 1422.25 4.53262 1405.44L4.5684 1274C4.54386 1259.11 3.62806 1225.47 5.16256 1211.69C6.63745 1237 5.56991 1273.94 5.59179 1300.23L5.74973 1472.85L41.2944 1473.21C62.5339 1471.79 101.783 1473 124.135 1473L288.505 1473.02L800.947 1473L2196.1 1472.98L2658.39 1472.99L2810.9 1472.99C2840.39 1472.99 2871.32 1473.45 2900.7 1472.64C2901.51 1452.15 2900.86 1427.07 2900.87 1406.31L2900.9 1277.51L2900.94 889.265L2900.96 309.069C2900.97 211.083 2902.38 109.756 2900.88 12.0789C2823.38 10.3418 2740.38 11.7358 2662.43 11.6966L2195.64 11.6755L784.672 11.9165L264.049 11.9325L97.1301 12.1319C71.8209 12.1774 34.5517 13.369 10.0511 11.9947C9.21449 11.8358 5.59529 11.7706 4.35175 11.6592L1.67522 8.33329C5.76427 1.50372 9.53378 5.41897 14.4975 0Z"/><path fill="#1A1618" transform="translate(-278 -185)" d="M5.16256 1211.69C6.63745 1237 5.56991 1273.94 5.59179 1300.23L5.74973 1472.85L41.2944 1473.21C44.3773 1475.05 65.1864 1474.39 70.1403 1474.39L157.897 1474.4L564.223 1474.37L2474.86 1474.33L2754.37 1474.33L2844.4 1474.29C2857.32 1474.28 2893.68 1472.31 2903.14 1477.72C2902.97 1478.8 2903.07 1479.18 2902.55 1480L0 1480L0 1471.69C2.17277 1469.61 0.906708 1470.35 4.35225 1470.08C5.61717 1454.59 4.52413 1422.25 4.53262 1405.44L4.5684 1274C4.54386 1259.11 3.62806 1225.47 5.16256 1211.69Z"/><path transform="translate(-278 -185)" d="M854.841 269.471C859.316 272.958 858.559 284.139 859.634 290.009C869.36 343.132 825.758 382.384 802.149 424.641C782.001 459.181 790.295 503.292 814.928 533.339C834.646 557.391 846.37 567.341 855.847 598.944C882.727 583.909 898.928 565.644 889.049 533.619C874.253 485.652 891.293 465.939 930.569 439.268C902.864 479.16 926.324 510.681 950.874 542.386C957.991 551.578 960.89 562.056 963.62 573.092C969.636 600.07 953.616 623.648 946.91 650.222C940.015 677.542 952.311 720.329 986.681 694.683C1014.25 674.112 1017.99 630.267 1020.99 597.52C1031.6 631.728 1040.05 657.598 1040.08 694.106C1040.12 717.52 1035.9 740.746 1027.62 762.646C1015.48 794.195 988.886 820.676 993.908 854.934C994.138 857.042 996.206 862.206 998.489 862.998C1015.43 868.867 1033.63 835.172 1039.07 825.81C1038.89 842.29 1038.42 861.017 1035.98 877.228C1024.39 954.164 978.463 1025.2 915.88 1070.8C846.496 1121.36 769.294 1139.95 684.652 1126.71C523.422 1104.92 366.735 935.805 414.061 767.996C417.81 784.421 427.362 817.324 448.031 822.004C456.852 824.002 462.966 813.775 464.799 805.97C469.946 784.191 458.527 762.182 448.794 742.986C420.182 686.555 436.356 624.001 478.051 579.326C486.622 570.143 497.475 562.289 507.619 554.487L507.262 555.043C478.893 599.303 473.605 652.299 523.065 683.151C521.317 626.262 534.207 588.637 575.398 548.372C604.818 519.613 613.114 477.812 589.394 442.087C608.394 453.518 622.633 463.631 632.471 484.625C645.171 511.73 639.756 531.204 630.204 557.42C635.976 554.619 642.044 551.212 646.964 547.509C683.126 520.298 671.407 499.143 676.071 464.53C683.297 419.663 720.577 382.629 758.489 361.348C799.696 338.217 846.239 321.507 854.841 269.471Z"/><path fill="white" transform="translate(-278 -185)" d="M738.066 566.491C751.651 590.662 693.699 647.906 730.318 690.323C752.015 715.456 769.43 718.449 790.697 737.369C791.394 730.065 792.268 719.515 790.448 712.576C782.316 681.562 775.49 681.064 785.064 649.064C785.755 653.241 785.697 658.459 787.1 662.552C795.474 686.98 817.499 691.048 830.71 714.341C844.898 681.703 852.974 680.263 881.281 661.596C837.18 737.819 896.721 747.561 876.25 820.246C897.543 805.349 908.383 792.387 927.997 777.364C927 780.885 925.893 784.69 925.055 788.246C912.689 840.762 949.35 871.706 919.475 925.021C938.993 915.357 945.089 910.974 956.569 893.565C957.94 936.008 932.349 995.211 886.094 1002.39C887.774 1005.85 889.712 1009.38 891.509 1012.79C878.388 1044.33 839.635 1065.5 811.064 1080.91L785.439 1093.98C786.607 1084.15 787.043 1076.77 787.379 1066.84C775.416 1078.68 760.415 1088.65 748.558 1101.28C735.294 1078.3 719.484 1071.31 712.552 1045.28C696.642 1059.58 690.852 1067.19 688.902 1088.37C659.071 1068.38 594.384 1035.75 578.073 1009.8C580.985 1006.73 584.773 1003.22 587.857 1000.21C573.813 996.661 560.965 989.444 550.63 979.296C524.449 953.308 519.04 920.101 519.142 885.24C530.094 902.745 540.369 910.293 558.777 919.26C545.821 886.73 548.19 853.068 563.906 822.199C568.691 812.801 576.516 798.383 577.766 788.499C580.482 767.042 574.405 750.737 562.23 733.943C592.215 745.513 610.204 757.128 625.469 786.121C635.348 766.277 638.937 755.529 633.215 733.198C626.763 708.021 627.758 685.861 639.89 662.451C649.649 643.411 664.125 627.19 681.936 615.336C706.687 598.549 724.614 596.081 738.066 566.491Z"/><path transform="translate(-278 -185)" d="M603.323 903.891C637.104 910.567 671.21 930.599 695.473 954.348C699.375 958.167 706.842 963.506 709.062 968.277C707.446 970.9 707.522 970.153 703.738 971.456C646.362 990.85 613.077 960.304 603.323 903.891Z"/><path transform="translate(-278 -185)" d="M873.478 903.954L875.14 904.831C875.751 907.392 875.026 909.462 874.264 911.929C858.848 961.842 834.203 988.707 779.5 972.661C776.655 971.9 772.356 970.167 769.472 969.109C798.36 934.264 831.484 917.086 873.478 903.954Z"/><path transform="translate(-278 -185)" d="M1402.74 426.475C1429.95 425.679 1459.66 426.243 1486.97 426.391C1487.72 451.825 1487.16 479.799 1487.15 505.385C1487.25 547.655 1487.13 589.926 1486.8 632.195C1467.87 634.301 1426.66 633.104 1406.29 632.655C1404.13 629.398 1402.66 628.069 1399.94 625.378C1400.08 603.599 1399.95 581.82 1399.57 560.044C1392.19 559.884 1384.35 560.17 1376.93 560.314C1376.99 582.864 1376.74 605.414 1376.21 627.958C1375.59 628.799 1374.78 629.783 1373.64 629.847C1362.45 630.476 1297.37 632.985 1290.58 629.389C1287.86 620.538 1288.72 559.251 1289.02 546.571C1289.91 509.121 1288.06 465.418 1290.23 428.389C1315 426.989 1350.43 427.939 1375.95 427.969L1375.93 493.412L1402.09 493.253C1402.21 472.61 1401.57 446.584 1402.74 426.475Z"/><path transform="translate(-278 -185)" d="M1738.56 895.463C1808.33 893.517 1884.71 895.381 1891.41 983.903C1894.82 1029.01 1880.73 1069.66 1837.75 1090.01C1809.56 1102.82 1789.29 1101.22 1759.49 1101.16L1692.02 1101C1690.92 1034.52 1691.91 965.261 1691.89 898.548C1707.43 897.275 1722.99 896.246 1738.56 895.463Z"/><path fill="white" transform="translate(-278 -185)" d="M1773.77 942.076C1817.94 939.298 1811.94 993.459 1808.34 1022.53C1807.32 1030.8 1802.56 1038.98 1797.86 1045.59C1788.54 1053.45 1780.84 1053.17 1769.21 1053.51C1767.62 1019.67 1769.3 981.834 1769.74 947.87C1769.77 945.465 1772.18 943.674 1773.77 942.076Z"/><path transform="translate(-278 -185)" d="M2118.45 889.827C2178.3 888.514 2227.9 935.916 2229.31 995.761C2230.71 1055.61 2183.38 1105.28 2123.54 1106.77C2063.57 1108.26 2013.77 1060.81 2012.36 1000.84C2010.96 940.874 2058.48 891.144 2118.45 889.827Z"/><path fill="white" transform="translate(-278 -185)" d="M2119.21 946.074C2152.68 945.749 2147.98 1023.62 2136.13 1043.03C2133.17 1047.88 2129.99 1049.44 2125.21 1051.58C2105.95 1053.08 2101.65 1034.46 2100.27 1018.83C2098.38 997.42 2094.62 955.049 2119.21 946.074Z"/><path transform="translate(-278 -185)" d="M1183.61 655.165C1243.41 655.052 1292.01 703.362 1292.26 763.157C1292.5 822.952 1244.3 871.663 1184.51 872.045C1124.52 872.428 1075.62 824.04 1075.38 764.055C1075.13 704.07 1123.63 655.279 1183.61 655.165Z"/><path fill="white" transform="translate(-278 -185)" d="M1179.97 712.012C1197.72 710.516 1205.04 725.974 1206.19 741.332C1207.76 762.216 1211.87 806.58 1189.07 816.646C1157.27 821.785 1162 763.451 1162.86 743.708C1163.41 731.117 1168.06 717.84 1179.97 712.012Z"/><path transform="translate(-278 -185)" d="M2275.65 661.46C2304.78 660.927 2345.26 661.563 2362.25 689.461C2373.22 707.489 2368.98 734.636 2354.07 749.284C2348.36 754.897 2343.62 757.541 2336.8 761.586C2344.92 766.648 2353.82 772.119 2357.45 781.861C2364.83 801.656 2367.45 823.203 2372.28 843.761C2373.77 850.085 2374.78 857.444 2375.12 863.957C2356.73 866.333 2311.97 865.417 2292.38 864.591C2285.14 848.821 2284.29 835.205 2282.07 818.243C2280.26 800.173 2280.01 798.2 2261.2 797.216C2261.28 820.213 2261.13 843.211 2260.74 866.205C2232.66 867.033 2203.21 866.681 2175.03 866.734C2176.03 799.147 2174.69 730.599 2175.35 662.828C2207.95 663.108 2242.97 662.307 2275.65 661.46Z"/><path fill="white" transform="translate(-278 -185)" d="M2261.33 709.198C2282.56 708.049 2307.45 715.24 2287.67 740.139C2256.3 761.346 2261.33 728.693 2261.33 709.198Z"/><path transform="translate(-278 -185)" d="M1578.14 895.264C1599.1 893.41 1642.94 894.945 1665.78 894.778C1666.03 926.476 1663.82 958.636 1663.23 990.377C1662.1 1009.48 1664.44 1030.21 1661.82 1049.09C1655.24 1096.45 1605.98 1102.89 1567.86 1104.03C1518.25 1105.52 1479.98 1098.29 1468.24 1044.37C1465.67 1030.4 1465.61 908.976 1468.75 897.7C1472.9 895.107 1543.19 896.472 1553.16 896.651L1553.1 992.671C1553.13 1004.97 1552.39 1022.81 1554.13 1034.62C1556.19 1048.67 1573.76 1048.3 1575.22 1030.16C1576.28 1016.96 1576.12 1004.56 1576.21 991.406C1576.5 969.534 1576.62 947.661 1576.56 925.787C1576.47 918.365 1575.02 900.846 1578.14 895.264Z"/><path transform="translate(-278 -185)" d="M1500.53 660.501C1504.65 660.594 1504.01 659.993 1507.13 661.819C1508.58 664.89 1509.26 669.425 1508.99 672.777C1507.09 696.786 1507.27 720.004 1506.28 744.031C1504.07 766.924 1508.94 800.276 1503.24 822.168C1491.8 866.151 1433.15 870.847 1396.23 869.692C1370.04 868.872 1348.47 866.449 1329.66 847.643C1308.17 826.155 1309.51 798.804 1309.73 771.286L1310.11 730.75C1310.65 716.136 1307.28 672.126 1312.73 662.994C1318.47 660.081 1385.14 661.281 1395.84 661.316L1395.94 751.597C1395.94 762.14 1392.82 800.376 1402.12 808.39C1408.05 813.509 1415.02 805.724 1418.47 799.624L1419.12 711.997C1419.16 700.645 1418.23 672.311 1420.63 662.592C1425.16 659.404 1489.57 660.522 1500.53 660.501Z"/><path transform="translate(-278 -185)" d="M1168.66 889.417L1169.65 889.338C1206.36 886.761 1264.5 903.1 1266.57 946.997C1266.76 951.076 1266.76 952.766 1264.04 955.867C1257.71 958.933 1211.35 957.101 1200.75 956.95C1195.78 952.505 1193.92 949.7 1188.04 945.499C1180.53 945.034 1166.59 942.974 1163.25 951.697C1166.65 959.862 1181.09 961.519 1189.25 963.574C1212.28 969.23 1236.17 975.172 1254.63 991.024C1278.45 1011.48 1276.5 1054.91 1256.66 1077.21C1237.04 1099.25 1201.43 1103.9 1173.35 1105.82C1125.1 1105.1 1083.37 1090.33 1079.45 1035.13L1157.49 1034.75C1159.6 1039.01 1162.35 1044.99 1165.1 1048.71C1167.51 1052.44 1172.22 1052.5 1175.18 1053.29C1180.54 1054.7 1193.41 1047.87 1191.55 1041.91C1185.76 1023.27 1148.34 1025.33 1133.1 1019.29C1119.21 1013.78 1110.58 1011.11 1099.38 1001.53C1075.81 981.735 1075.74 940.795 1095.74 918.467C1114.18 897.872 1142.21 891.429 1168.66 889.417Z"/><path transform="translate(-278 -185)" d="M2462.68 655.368C2499.05 651.531 2556.97 662.896 2566.18 705.378C2567.32 710.639 2567.97 715.25 2564.91 720.002C2559.93 724.025 2509.84 722.104 2500.51 721.449C2497.11 718.027 2491.4 711.46 2486.57 710.802C2479.39 709.825 2464.83 708.171 2463.15 717.564C2463.86 719.632 2464.27 721.68 2466.71 722.478C2496.13 731.938 2526.46 734.591 2551.87 753.857C2578.46 774.016 2577.84 817.793 2557.6 841.908C2539.35 863.647 2503.28 868.62 2476.24 870.691C2427.98 872.889 2384.18 854.912 2379.7 800.983C2398.82 799.229 2437.42 800.349 2457.89 800.337C2463.13 810.678 2464.14 816.927 2476.27 818.197C2482.69 818.87 2494.42 812.185 2492.09 806.481C2484.89 788.843 2450.68 790.802 2435.21 784.941C2422.12 780.135 2413.96 777.66 2403.11 769.354C2376.99 751.259 2375.22 710.749 2393.85 686.582C2409.94 665.717 2437.31 658.742 2462.68 655.368Z"/><path transform="translate(-278 -185)" d="M1254.61 408.489C1262.41 408.417 1269.99 408.68 1277.78 408.927C1278.96 424.117 1279.07 458.905 1278.25 473.826C1260.45 474.363 1241.41 474.021 1223.49 473.967C1222.18 527.774 1225.46 589.319 1222.53 641.911C1199.58 642.835 1176.05 641.846 1153.05 642.309C1145 642.47 1134.59 642.788 1127.66 638.326C1123.72 633.294 1125.23 620.584 1125.45 613.752C1127.07 578.565 1126.87 542.575 1128.36 507.308C1128.71 498.924 1128.61 485.515 1124.39 478.204C1120.18 475.228 1083.26 476.238 1074.83 475.919C1072.27 466.952 1071.28 419.929 1074.63 411.737C1079.58 408.426 1234.63 408.679 1254.61 408.489Z"/><path transform="translate(-278 -185)" d="M2123.5 661.489C2133.63 661.393 2143.88 661.495 2154.01 661.512C2154.29 681.311 2154.18 701.113 2153.7 720.908C2129.9 722.056 2103.35 721.683 2079.49 721.682C2079.64 727.736 2079.5 734.099 2079.45 740.179C2101.5 740.252 2126.06 738.539 2147.8 739.578C2148.44 754.148 2148.14 770.931 2148.21 785.666C2125.54 786.485 2102.85 787.056 2080.17 787.378L2080.2 806.744C2105.75 806.381 2132.28 805.639 2157.75 806.808C2158.23 819.045 2157.99 832.572 2158.02 844.91C2158.01 851.827 2157.76 858.028 2157.41 864.907C2140.44 866.812 2004.71 866.65 1997.62 864.132C1993.71 852.107 1994.92 684.804 1996.55 663.105L2123.5 661.489Z"/><path transform="translate(-278 -185)" d="M1579.42 427.444C1611.15 426.61 1642.74 427.382 1674.31 426.56C1674.25 446.26 1674.4 466.418 1673.7 486.06C1650.99 487.434 1622.65 486.849 1599.52 486.947L1599.26 505.117C1619.48 504.936 1648.14 503.856 1667.7 505.07C1668.51 519.129 1668.47 536.572 1668.78 550.885C1645.89 552.15 1622.98 553 1600.06 553.433L1600.1 571.959C1619.21 572.128 1638.31 572.185 1657.42 572.13L1677.72 572.461C1677.97 591.661 1677.86 610.864 1677.4 630.06C1643.65 630.962 1608.63 630.125 1574.79 630.595C1565.43 630.725 1525.98 631.322 1518.57 629.433C1514.22 618.02 1515.48 450.307 1516.88 428.529C1537.56 427.733 1558.12 428.379 1579.42 427.444Z"/><path transform="translate(-278 -185)" d="M1275.69 897.392C1317.99 898.596 1361.41 896.093 1403.83 897.463C1421.03 898.019 1438.54 897.187 1455.72 898.427C1456.83 911.652 1456.43 943.098 1455.51 956.54C1441.3 957.569 1422.75 957.166 1408.22 957.254C1407.98 990.419 1407.95 1023.58 1408.11 1056.75C1408.15 1071.65 1408.06 1086.56 1407.84 1101.46C1396.82 1102.26 1328.23 1102.26 1320.67 1098.81C1316.96 1088.4 1321.82 977.141 1321.99 958.144C1306.23 957.756 1290.28 958.468 1274.54 957.23C1273.96 949.075 1272.69 901.677 1275.69 897.392Z"/><path transform="translate(-278 -185)" d="M1517.57 663.168L1639.45 663.276C1654.82 663.259 1684.12 662.293 1698.17 663.718C1699.54 680.003 1698.8 704.67 1698.57 721.49C1682.75 721.769 1666.93 721.947 1651.11 722.025L1650.46 866.982C1638.09 867.084 1572.34 867.408 1564.66 864.63C1560.07 859.583 1563.33 791.365 1563.89 779.269C1563.95 778.064 1564.02 776.861 1564.12 775.659C1563.42 762.876 1564.09 736.599 1564.87 723.665C1553.76 723.481 1527.62 723.659 1517.58 722.094C1516.84 704.126 1516.76 681.119 1517.57 663.168Z"/><path fill="#1A1618" transform="translate(-278 -185)" d="M1564.87 723.665C1566.95 725.139 1567.84 725.115 1567.91 727.945C1568.22 740.891 1569.3 757.04 1565.8 769.552C1565.28 771.406 1565.26 772.831 1565.18 774.621L1564.12 775.659C1563.42 762.876 1564.09 736.599 1564.87 723.665Z"/><path transform="translate(-278 -185)" d="M1716.15 660.913C1726.98 661.095 1793.85 659.816 1797.84 664.058C1800.6 666.99 1801.16 670.53 1801.19 674.397C1801.26 682.97 1797.15 691.509 1796.87 700.47C1795.8 735.07 1797.36 769.719 1796.13 804.3C1819.22 804.279 1845.58 803.888 1868.4 805.104C1869.3 816.944 1870.34 854.195 1867.46 864.426C1855.54 869.242 1732.71 866.863 1710.2 866.473C1706.64 808.703 1713.58 748.368 1710.84 690.359C1710.33 679.513 1710.8 670.562 1716.15 660.913Z"/><path transform="translate(-278 -185)" d="M1912.22 897.27C1940.37 896.929 1968.83 897.166 1997 897.192C1997.62 911.138 1997.17 928.05 1997.18 942.27L1997.23 1026.32C1997.23 1036.95 1997.65 1094.43 1996.07 1100.41L1994.11 1101.31C1965.89 1102.24 1937.36 1100.87 1909.51 1101.92C1907.65 1036.52 1909.77 969.608 1909.44 904.084C1909.42 901.328 1910.51 899.327 1912.22 897.27Z"/><path transform="translate(-278 -185)" d="M1881.85 663.239C1908.16 662.03 1941.34 662.928 1968.17 662.976C1966.67 707.295 1968.47 753.534 1967.87 797.96C1967.7 809.849 1968.91 860.016 1966.57 866.814C1937.77 867.049 1908.98 867.122 1880.19 867.033C1880.67 839.384 1878.05 671.736 1881.85 663.239Z"/></g></svg>