<?xml version="1.0" encoding="utf-8" ?><svg xmlns="http://www.w3.org/2000/svg" xmlns:xlink="http://www.w3.org/1999/xlink" width="413" height="581" viewBox="0 0 413 581"><clipPath id="cl_3"><rect width="413" height="581"/></clipPath><g clip-path="url(#cl_3)"><path transform="translate(-68 -83)" d="M0 0L486 0L486 473.479L486 483.769L486 664L0 664L0 0Z"/><path fill="#FEFEFE" transform="translate(-68 -83)" d="M358.411 96.4835C359.709 97.6134 360.76 108.017 361.111 110.364C366.26 144.815 341.049 167.592 325.193 194.617C309.072 222.094 319.31 253.111 340.287 274.567C350.081 284.585 354.531 293.537 358.483 306.784C363.944 303.92 365.986 303.384 370.823 299.088C383.2 288.234 383.129 274.322 378.201 259.849C370.179 236.285 385.291 216.566 405.128 206.623C400.787 213.808 399.098 218.782 398.469 227.201C396.262 256.743 425.244 264.905 427.307 294.761C429.535 314.833 416.34 326.555 415.038 346.386C413.75 366.008 425.074 383.205 443.586 366.213C458.681 352.357 462.178 325.981 462.72 306.336C463.602 310.04 465.609 314.654 466.835 318.388C477.266 350.177 479.259 384.099 465.699 415.152C463.587 420.008 461.194 424.737 458.534 429.316C455.987 433.698 453.037 438.169 450.885 442.731C446.604 451.807 443.381 462.325 446.761 472.222C448.853 478.346 453.865 476.809 457.875 473.765C464.752 468.167 470.889 459.446 474.366 451.364C474.675 463.487 474.291 475.774 472.133 487.729C456.553 574.059 378.998 641.52 291.462 645.551C275.387 646.292 260.2 644.844 244.391 642.008C190.836 631.641 143.059 601.706 110.369 558.037C83.909 522.517 65.9688 470.862 75.6339 426.323C76.4661 422.488 77.9438 418.752 78.4841 414.826L78.5437 414.37C80.1823 423.932 85.0909 435.609 91.1376 443.008C98.2904 451.761 106.88 452.29 110.425 440.293C113.103 432.51 111.413 422.083 108.101 414.421C103.91 404.727 99.3175 396.81 95.8378 386.488C92.485 376.659 91.025 366.284 91.5351 355.912C92.8247 331.44 107.416 303.871 126.071 288.063C129.983 284.748 134.148 281.822 137.95 278.411C135.938 282.7 133.266 286.739 131.133 291.092C121.164 311.441 121.042 338.426 138.795 354.631C141.296 356.915 144.687 358.424 147.426 360.436L147.695 360.636C147.959 356.238 147.676 350.107 147.759 345.503C147.923 339.223 148.715 332.974 150.124 326.852C152.792 314.932 158.473 302.436 165.695 292.579C177.444 276.542 193.482 266.663 197.646 245.81C200.18 233.119 196.835 218.084 189.845 207.371C192.961 209.451 196.821 211.286 199.839 213.476C207.976 219.382 215.27 228.784 218.824 238.159C224.59 253.372 221.334 267.013 215.014 281.167C217.524 279.485 220.836 278.064 223.507 276.347C234.516 269.269 243.317 257.968 244.027 244.492C244.191 241.362 243.848 237.389 243.761 234.21C243.579 228.291 244.21 222.376 245.636 216.628C251.476 192.43 271.799 171.104 292.444 158.43C315.325 144.383 343.494 135.893 354.864 108.937C356.48 105.106 357.438 100.538 358.411 96.4835Z"/><path transform="translate(-68 -83)" d="M283.915 284.817L284.344 285.048C284.852 286.032 284.743 288.384 284.889 289.663C286.927 307.568 272.814 319.496 271.38 336.918C269.795 356.184 280.369 370.709 295.985 380.52C304.515 385.879 309.951 387.15 316.687 395.529C318.861 385.772 318.581 379.195 314.43 370.065C309.1 358.34 308.826 351.048 313.787 339.118C313.983 341.562 313.828 342.396 314.356 344.923C317.96 362.181 337.076 366.6 343.03 381.222C343.474 379.538 344.014 377.881 344.648 376.259C350.382 361.835 360.551 354.246 374.176 348.216C370.945 352.69 368.231 359.864 366.612 364.982C361.31 380.424 365.3 393.626 370.863 408.226C376.021 421.763 375.398 433.623 371.744 447.43C381.542 441.652 386.992 436.314 394.759 428.1C396.736 426.01 401.477 423.261 404.067 421.044C401.606 430.206 399.372 441.055 400.869 450.377C403.242 465.159 408.741 477.805 406.055 493.221C404.744 500.743 402.324 506.71 399.652 513.93C411.082 508.495 414.761 505.507 422.193 495.153C423.268 518.172 411.934 545.947 392.257 558.62C387 562.006 384.058 562.727 378.127 563.977C378.979 566.251 379.886 568.504 380.846 570.734C379.263 575.502 376.282 579.399 373.128 583.218C361.19 597.676 344.048 606.157 327.854 615.253C323.221 617.685 318.5 619.946 313.701 622.03C315.123 615.246 315.292 612.223 314.832 605.369C309.24 610.263 294.868 621.95 290.812 626.813C288.861 623.739 286.415 619.964 284.096 617.184C277.832 609.673 269.464 601.625 268.097 591.443C267.148 592.224 266.211 593.02 265.286 593.829C257.088 601.024 253.507 607.663 252.794 618.591C246.747 614.495 239.81 609.812 233.535 606.097L213.656 594.26C200.433 586.318 191.495 581.229 182.457 568.749C185.256 566.549 186.303 565.127 188.354 562.251C178.929 559.441 170.886 555.555 164.104 548.172C153.668 536.809 147.236 521.031 145.745 505.743C145.202 500.17 145.389 495.156 145.573 489.624C150.03 497.588 161.078 507.515 169.964 510.508C162.778 488.208 163.29 470.014 173.37 448.831C175.604 443.271 179.721 438.332 181.477 432.622C184.078 424.166 182.58 412.665 179.155 404.479C177.656 400.897 174.93 396.522 173.061 393.075C176.34 394.29 179.322 395.436 182.519 396.828C194.294 401.955 207.649 413.495 212.068 425.871C218.571 415.942 221.001 408.908 218.48 396.588C217.666 392.609 216.214 388.278 215.526 384.284C213.462 372.296 215.304 359.961 220.78 349.098C226.724 337.156 235.435 326.806 246.186 318.909C260.332 308.396 278.525 304.398 283.915 284.817Z"/><path fill="#FEFEFE" transform="translate(-68 -83)" d="M198.199 500.564C209.416 504.142 222.217 508.542 232.454 514.232C245.201 521.317 255.774 532.935 266.758 542.373L262.86 543.884C225.041 558.543 205.976 535.13 198.199 500.564Z"/><path fill="#FEFEFE" transform="translate(-68 -83)" d="M370.772 500.932C371.193 500.937 370.973 500.875 371.382 501.243C371.129 503.351 369.095 509.586 368.312 511.806C363.663 524.977 356.569 538.679 343.297 544.889C331.749 550.292 320.246 548.422 308.747 544.318C307.411 543.741 304.979 542.997 303.53 542.504C306.958 539.559 312.307 534.063 315.817 530.717C332.749 514.571 348.483 507.413 370.772 500.932Z"/></g></svg>