<?xml version="1.0" encoding="utf-8" ?><svg xmlns="http://www.w3.org/2000/svg" xmlns:xlink="http://www.w3.org/1999/xlink" width="403" height="548" viewBox="0 0 403 548"><clipPath id="cl_5"><rect x="0.00016403198" y="-4.5776367e-05" width="403.46695" height="547.59918"/></clipPath><g clip-path="url(#cl_5)"><path fill="#FEFEFE" transform="matrix(0.516603 0 0 0.516603 -59.4092 -72.3245)" d="M653.616 167.428C655.688 170.085 657.451 184.079 658.194 188.019C666.082 230.05 645.235 267.879 622.24 301.237C600.989 332.523 574.186 365.308 578.325 405.533C582.427 445.407 601.377 472.406 628.053 500.489C639.964 513.029 648.329 533.509 653.329 550.037C656.82 548.422 660.24 546.658 663.581 544.751C677.645 536.627 689.419 523.784 692.957 507.606C699.622 477.125 678.204 454.107 687.578 423.217C696.329 394.38 714.392 380.884 739.2 366.605C732.297 375.357 728.724 386.656 726.826 397.517C716.683 455.57 775.742 474.428 778.649 530.626C781.177 565.688 758.183 589.746 756.283 624.888C754.333 660.935 777.408 688.402 808.959 657.942C835.385 632.43 841.648 585.792 842.451 550.431C867.225 614.133 876.485 673.568 851.802 739.658C848.511 748.469 843.659 759.251 838.923 767.829C825.072 792.676 806.674 818.299 812.696 848.464C813.879 854.392 819.331 862.422 826.173 859.513C844.179 851.856 855.027 830.831 864.262 814.819C864.791 833.866 863.712 852.923 861.037 871.789C847.236 964.512 795.18 1044.79 720.234 1100.25C658.287 1146.29 582.693 1170.25 505.529 1168.29C485.157 1167.72 465.88 1164.78 445.8 1161.78C419.925 1157.28 386.897 1146.17 362.998 1135.94C270.643 1096.42 191.093 1018.18 155.124 923.858C137.56 877.802 128.703 827.923 137.329 778.919C138.837 770.348 140.917 756.961 144.433 749.017C149.104 765.603 153.129 778.374 162.554 793.085C175.308 812.992 194.77 820.144 202.418 791.921C209.843 764.522 193.731 740.192 183.248 716.041C179.033 706.188 175.419 696.089 172.426 685.799C167.416 667.403 166.151 648.189 168.706 629.295C173.716 591.483 193.871 552.438 220.747 525.681C230.414 516.056 242.441 506.003 253.322 497.662C248.345 505.35 243.941 513.404 239.901 521.623C219.069 563.992 221.992 625.729 270.423 648.325C265.826 598.041 281.21 543.226 316.708 507.142C359.448 463.695 377.301 427.398 346.36 368.314C371.127 383.084 387.093 396.234 398.497 423.702C410.818 453.379 403.844 476.011 392.078 503.677C417.018 489.611 444.232 468.979 444.387 438.349C444.561 403.909 444.079 383.365 461.423 352.145C483.872 311.738 518.961 285.665 559.343 264.551C588.548 249.281 620.07 232.445 638.717 204.178C646.834 191.969 648.163 180.507 653.331 168.102L653.616 167.428Z"/><path transform="matrix(0.516603 0 0 0.516603 -59.4092 -72.3245)" d="M518.363 511.372C519.598 512.767 519.498 517.646 519.614 519.725C521.568 554.783 494.746 577.467 494.718 612.833C494.809 625.102 497.83 637.171 503.528 648.037C511.601 663.241 525.565 677.087 540.543 685.41C556.26 694.143 564.738 699.534 577.353 712.317C580.632 691.139 580.066 681.435 571.009 661.452C562.859 643.471 564.575 626.538 572.079 608.526C573.704 640.006 590.168 647.022 610.632 666.517C616.95 672.536 620.935 678.654 625.359 686.005L625.73 684.72C635.615 651.051 653.24 641.629 681.419 626.221C666.289 650.758 657.826 687.032 668.29 714.184C682.998 752.348 686.105 767.209 676.983 807.212C687.096 801.142 696.583 794.084 705.304 786.144C715.86 776.515 723.933 767.011 736.377 759.164C730.666 778.524 727.365 799.06 731.591 819.082C736.064 840.276 742.209 860.838 740.506 882.752C739.223 899.264 734.214 912.781 728.114 927.921C749.466 917.851 755.434 912.978 769.19 893.775C770.109 923.051 762.209 951.928 746.515 976.661C732.269 999.021 715.192 1013.69 688.924 1019.55C691.001 1023.85 692.539 1027.55 694.319 1031.96C675.708 1070.79 637.454 1091.35 600.798 1110.9C592.763 1115.4 580.061 1121.49 571.625 1124.98C574.022 1113.27 573.937 1106.59 573.51 1094.8C557.766 1109.23 545.33 1117.85 529.82 1133.98C514.321 1107.84 495.902 1099.98 488.544 1069.79L487.945 1070.27C469.248 1085.27 463.583 1096.38 461.078 1119.31C441.044 1104.74 416.914 1090.89 395.569 1078.16C368.711 1062.15 352.327 1053.66 333.049 1028.38C337.366 1024.61 340.138 1020.97 343.737 1016.55C327.845 1011.93 312.536 1004.27 300.929 992.32C279.31 970.056 268.284 939.132 265.915 908.577C265.335 901.09 265.562 892.098 265.597 884.53C279.386 903.912 288.812 911.948 310.128 922.403C297.727 880.237 298.06 850.002 316.743 809.26C321.35 798.535 329.096 788.565 331.985 777.186C338.144 752.929 327.826 728.767 315.998 708.158C347.928 720.683 372.269 735.058 387.019 768.053C391.189 759.729 396.859 751.616 398.977 742.494C402.247 728.419 398.826 714.259 395.228 700.584C387.898 672.72 392.416 647.647 405.679 622.318C416.209 602.208 435.776 580.834 454.908 568.566C485.337 549.054 502.032 547.221 518.363 511.372Z"/><path fill="#FEFEFE" transform="matrix(0.516603 0 0 0.516603 -59.4092 -72.3245)" d="M361.673 904.24C424.729 922.188 439.786 938.562 486.076 980.284L477.736 983.471C473.334 985.121 468.848 986.54 464.297 987.722C400.633 1004.13 375.055 956.205 361.673 904.24Z"/><path fill="#FEFEFE" transform="matrix(0.516603 0 0 0.516603 -59.4092 -72.3245)" d="M674.324 905.333C675.111 905.178 675.108 905.285 675.955 905.421C676.483 907.148 673.925 916.309 673.271 918.236C664.766 943.289 652.387 970.538 627.864 983.46C606.765 994.578 585.417 990.529 564.174 983.967L553.318 980.226C564.022 970.391 573.749 960.377 584.814 950.744C611.874 927.187 640.202 914.854 674.324 905.333Z"/></g></svg>